<svg width="90" height="35" viewBox="0 0 90 35" fill="none" xmlns="http://www.w3.org/2000/svg">
    <path d="M44.6908 13.8H40.6084L39.874 10.6896C39.8452 10.5744 39.7948 10.38 39.7228 10.1064C39.6652 9.81845 39.5932 9.60965 39.5068 9.48005C39.4204 9.33605 39.298 9.24245 39.1396 9.19925C38.7364 9.21365 38.146 9.22085 37.3684 9.22085V13.8H33.4804V1.59605C35.2228 1.46645 36.85 1.40165 38.362 1.40165C39.73 1.40165 40.8388 1.51685 41.6884 1.74725C42.538 1.96325 43.1716 2.34485 43.5892 2.89205C44.0212 3.42485 44.2372 4.15925 44.2372 5.09525C44.2372 5.97365 44.0356 6.66485 43.6324 7.16885C43.2292 7.65845 42.5812 7.95365 41.6884 8.05445V8.18405C42.1924 8.22725 42.61 8.39285 42.9412 8.68085C43.2868 8.95445 43.5172 9.30725 43.6324 9.73925L44.6908 13.8ZM37.3684 6.78005C37.498 6.79445 37.75 6.80165 38.1244 6.80165C39.2332 6.80165 39.8812 6.70805 40.0684 6.52085C40.2412 6.34805 40.3276 5.94485 40.3276 5.31125C40.3276 4.72085 40.1692 4.31765 39.8524 4.10165C39.55 3.88565 39.046 3.77765 38.3404 3.77765C38.182 3.77765 37.858 3.79205 37.3684 3.82085V6.78005ZM45.9021 1.48805H54.8661V4.08005H49.7901V6.32645H54.0669V8.65925H49.7901V11.1648H54.8445V13.8H45.9021V1.48805ZM63.6428 11.1H60.0572L59.4092 13.8H55.4348L59.4092 1.48805H64.4852L68.2868 13.8H64.2908L63.6428 11.1ZM61.8284 4.14485L60.554 8.70245H63.1244L61.9148 4.14485H61.8284ZM69.3177 1.48805H73.2057V10.9488H78.2385V13.8H69.3177V1.48805ZM41.4724 23.2984C42.4516 23.4136 43.15 23.7448 43.5676 24.292C43.9852 24.8248 44.194 25.4728 44.194 26.236C44.194 26.7112 44.122 27.1648 43.978 27.5968C43.834 28.0144 43.6612 28.3744 43.4596 28.6768C43.258 28.9648 43.0852 29.152 42.9412 29.2384C42.3652 29.6128 40.6084 29.8 37.6708 29.8H33.4804V17.488H38.5564C39.7084 17.488 40.6372 17.5528 41.3428 17.6824C42.0628 17.7976 42.646 18.0712 43.0924 18.5032C43.5388 18.9208 43.762 19.5616 43.762 20.4256C43.762 21.1744 43.5748 21.7792 43.2004 22.24C42.8404 22.7008 42.2644 23.0176 41.4724 23.1904V23.2984ZM39.7444 20.1016C39.6004 19.9576 39.4276 19.8712 39.226 19.8424C39.0388 19.7992 38.7364 19.7776 38.3188 19.7776C37.9012 19.7776 37.5844 19.7848 37.3684 19.7992V22.4344H37.5844C37.6564 22.4344 37.9588 22.4344 38.4916 22.4344C39.0244 22.4344 39.3772 22.3984 39.55 22.3264C39.6796 22.2688 39.7948 22.1176 39.8956 21.8728C40.0108 21.628 40.0684 21.3616 40.0684 21.0736C40.0684 20.6416 39.9604 20.3176 39.7444 20.1016ZM40.1116 27.316C40.2124 27.2296 40.2916 27.0712 40.3492 26.8408C40.4212 26.596 40.4572 26.3512 40.4572 26.1064C40.4572 25.804 40.414 25.5232 40.3276 25.264C40.2556 24.9904 40.1548 24.796 40.0252 24.6808C39.8956 24.5512 39.7084 24.4648 39.4636 24.4216C39.2332 24.3784 38.8372 24.3568 38.2756 24.3568C37.9156 24.3568 37.6132 24.364 37.3684 24.3784V27.5104C38.0452 27.5248 38.65 27.5176 39.1828 27.4888C39.7156 27.4456 40.0252 27.388 40.1116 27.316ZM45.7122 17.488H54.6762V20.08H49.6002V22.3264H53.877V24.6592H49.6002V27.1648H54.6546V29.8H45.7122V17.488ZM56.2169 17.488H65.1809V20.08H60.1049V22.3264H64.3817V24.6592H60.1049V27.1648H65.1593V29.8H56.2169V17.488ZM78.04 29.8H73.9576L73.2232 26.6896C73.1944 26.5744 73.144 26.38 73.072 26.1064C73.0144 25.8184 72.9424 25.6096 72.856 25.48C72.7696 25.336 72.6472 25.2424 72.4888 25.1992C72.0856 25.2136 71.4952 25.2208 70.7176 25.2208V29.8H66.8296V17.596C68.572 17.4664 70.1992 17.4016 71.7112 17.4016C73.0792 17.4016 74.188 17.5168 75.0376 17.7472C75.8872 17.9632 76.5208 18.3448 76.9384 18.892C77.3704 19.4248 77.5864 20.1592 77.5864 21.0952C77.5864 21.9736 77.3848 22.6648 76.9816 23.1688C76.5784 23.6584 75.9304 23.9536 75.0376 24.0544V24.184C75.5416 24.2272 75.9592 24.3928 76.2904 24.6808C76.636 24.9544 76.8664 25.3072 76.9816 25.7392L78.04 29.8ZM70.7176 22.78C70.8472 22.7944 71.0992 22.8016 71.4736 22.8016C72.5824 22.8016 73.2304 22.708 73.4176 22.5208C73.5904 22.348 73.6768 21.9448 73.6768 21.3112C73.6768 20.7208 73.5184 20.3176 73.2016 20.1016C72.8992 19.8856 72.3952 19.7776 71.6896 19.7776C71.5312 19.7776 71.2072 19.792 70.7176 19.8208V22.78ZM82.9017 20.8144C82.9017 21.1168 83.0529 21.3544 83.3553 21.5272C83.6721 21.7 84.1617 21.8872 84.8241 22.0888C85.6161 22.348 86.2641 22.6 86.7681 22.8448C87.2865 23.0896 87.7329 23.4712 88.1073 23.9896C88.4961 24.508 88.6905 25.1848 88.6905 26.02C88.6905 28.6984 86.9481 30.0376 83.4633 30.0376C82.8873 30.0376 82.1817 29.9872 81.3465 29.8864C80.5257 29.7856 79.7769 29.656 79.1001 29.4976C79.1289 29.1952 79.1865 28.756 79.2729 28.18C79.3737 27.5896 79.4673 27.1504 79.5537 26.8624C80.0577 26.9344 80.8137 27.0208 81.8217 27.1216C82.8441 27.2224 83.6145 27.2728 84.1329 27.2728C84.4353 27.2728 84.6153 27.2512 84.6729 27.208C84.7593 27.1504 84.8241 27.0568 84.8673 26.9272C84.9249 26.7832 84.9537 26.6608 84.9537 26.56C84.9537 26.272 84.8169 26.056 84.5433 25.912C84.2697 25.7536 83.8017 25.5664 83.1393 25.3504C82.3473 25.1056 81.6921 24.8536 81.1737 24.5944C80.6553 24.3352 80.2017 23.932 79.8129 23.3848C79.4241 22.8376 79.2297 22.1176 79.2297 21.2248C79.2297 20.5912 79.3737 19.972 79.6617 19.3672C79.9497 18.748 80.2449 18.3304 80.5473 18.1144C80.7777 17.956 81.2529 17.8048 81.9729 17.6608C82.6929 17.5168 83.3697 17.4448 84.0033 17.4448C85.6161 17.4448 86.9337 17.596 87.9561 17.8984C87.9417 18.1864 87.8913 18.5824 87.8049 19.0864C87.7329 19.5904 87.6537 20.0512 87.5673 20.4688L87.0705 20.4472C85.1985 20.3176 84.0033 20.2528 83.4849 20.2528C83.2689 20.2528 83.1465 20.26 83.1177 20.2744C83.0601 20.3032 83.0097 20.368 82.9665 20.4688C82.9233 20.5696 82.9017 20.6848 82.9017 20.8144Z" fill="black"/>
    <g clip-path="url(#clip0_161_29)">
        <path d="M21.6001 9V27.8982C21.6018 28.2535 21.5365 28.6057 21.4078 28.9343C21.2791 29.263 21.0896 29.5616 20.8503 29.8128C20.611 30.0641 20.3266 30.263 20.0136 30.3981C19.7006 30.5332 19.3652 30.6018 19.0267 30.6H6.17348C5.83504 30.6018 5.49961 30.5332 5.18659 30.3981C4.87357 30.263 4.58918 30.0641 4.34987 29.8128C4.11055 29.5616 3.92107 29.263 3.79238 28.9343C3.66369 28.6057 3.59835 28.2535 3.60013 27.8982V9H7.45341C7.79937 8.99955 8.13223 9.13883 8.38305 9.389C8.63387 9.63917 8.78341 9.98104 8.80071 10.3438V12.3666C8.80071 12.9031 9.0037 13.4176 9.36501 13.7969C9.72633 14.1763 10.2164 14.3894 10.7274 14.3894C11.2383 14.3894 11.7284 14.1763 12.0897 13.7969C12.451 13.4176 12.654 12.9031 12.654 12.3666V10.3438C12.6713 9.98104 12.8208 9.63917 13.0717 9.389C13.3225 9.13883 13.6553 8.99955 14.0013 9H21.6001Z" stroke="#020202" stroke-width="2.60885" stroke-miterlimit="10"/>
        <path d="M22.6934 12.3514H26.5998C27.2824 12.3476 27.9393 12.6114 28.4296 13.0864C28.9199 13.5613 29.2044 14.2095 29.2223 14.8919V20.1096C29.2223 20.4522 29.1548 20.7915 29.0237 21.108C28.8926 21.4245 28.7004 21.7121 28.4582 21.9543C28.2159 22.1966 27.9283 22.3888 27.6118 22.5199C27.2953 22.651 26.9561 22.7185 26.6135 22.7185H22.6934V12.3514Z" stroke="#020202" stroke-width="2.60885" stroke-miterlimit="10"/>
        <path d="M10.9609 14.96V26.693" stroke="#020202" stroke-width="2.60885" stroke-miterlimit="10"/>
        <path d="M16.1797 14.96V26.693" stroke="#020202" stroke-width="2.60885" stroke-miterlimit="10"/>
        <path d="M14.8811 9.74254H22.052C22.5436 9.70147 23.0018 9.47717 23.3358 9.11413C23.6698 8.75108 23.8551 8.27579 23.8551 7.78249C23.8551 7.28919 23.6698 6.8139 23.3358 6.45085C23.0018 6.0878 22.5436 5.86351 22.052 5.82244H20.0852C20.0819 5.14324 19.8154 4.49178 19.3415 4.00518C18.8676 3.51858 18.2235 3.23481 17.5446 3.21359C17.2448 3.21836 16.9484 3.27856 16.6704 3.39115C16.2751 2.87124 15.7544 2.45999 15.1571 2.1958C14.5597 1.9316 13.9052 1.82309 13.2545 1.88038C12.6039 1.93767 11.9783 2.15889 11.4363 2.52341C10.8944 2.88792 10.4536 3.38383 10.1551 3.96483C9.91882 3.72809 9.63762 3.5409 9.32802 3.41425C9.01842 3.28759 8.68665 3.22402 8.35216 3.22725C7.66371 3.2308 7.00426 3.50493 6.51616 3.99047C6.02807 4.47601 5.75048 5.13401 5.74332 5.82244H5.10135C4.8302 5.79978 4.55729 5.83363 4.29989 5.92185C4.04249 6.01007 3.8062 6.15073 3.60595 6.33495C3.4057 6.51917 3.24584 6.74293 3.1365 6.99209C3.02716 7.24125 2.9707 7.51039 2.9707 7.78249C2.9707 8.05459 3.02716 8.32372 3.1365 8.57288C3.24584 8.82204 3.4057 9.04581 3.60595 9.23002C3.8062 9.41424 4.04249 9.55491 4.29989 9.64312C4.55729 9.73134 4.8302 9.76519 5.10135 9.74254H8.35216" stroke="#020202" stroke-width="2.60885" stroke-miterlimit="10"/>
    </g>
    <defs>
        <clipPath id="clip0_161_29">
            <rect width="30.6" height="30.6" fill="white"/>
        </clipPath>
    </defs>
</svg>
